<svg width="84" height="14" viewBox="0 0 84 14" fill="none" xmlns="http://www.w3.org/2000/svg">
<path d="M24.709 0C28.7357 5.73997e-05 32 3.13404 32 7C32 10.866 28.7357 13.9999 24.709 14H7.29102C3.26429 13.9999 0 10.866 0 7C0 3.13404 3.26429 6.33383e-05 7.29102 0H24.709ZM75.667 0C79.7169 0.000150544 83 3.1341 83 7C83 10.8658 79.717 13.9998 75.667 14H58.333C54.2831 13.9998 51 10.8658 51 7C51 3.13411 54.2831 0.000166283 58.333 0H75.667ZM41.7061 6.46387H45.1143V7.53613H41.7061V11.1357H40.6182V7.53613H37.21V6.46387H40.6182V2.86426H41.7061V6.46387ZM62.333 9.4502V11.083H71.667V9.4502H62.333ZM8.70898 5.25C7.70229 5.25 6.88574 6.0335 6.88574 7C6.88574 7.9665 7.70229 8.75 8.70898 8.75C9.71552 8.74981 10.5312 7.96638 10.5312 7C10.5312 6.03362 9.71552 5.25019 8.70898 5.25ZM15.999 5.25C14.9923 5.25 14.1758 6.0335 14.1758 7C14.1758 7.9665 14.9923 8.75 15.999 8.75C17.0057 8.74998 17.8213 7.96649 17.8213 7C17.8213 6.03351 17.0057 5.25002 15.999 5.25ZM23.29 5.25C22.2835 5.25016 21.4678 6.0336 21.4678 7C21.4678 7.9664 22.2835 8.74984 23.29 8.75C24.2967 8.75 25.1133 7.9665 25.1133 7C25.1133 6.0335 24.2967 5.25 23.29 5.25ZM62.333 7.81641H71.667V6.18359H62.333V7.81641ZM62.333 4.5498H71.667V2.91699H62.333V4.5498Z" fill="white"/>
</svg>
