<svg width="84" height="14" viewBox="0 0 84 14" fill="none" xmlns="http://www.w3.org/2000/svg"><path fill-rule="evenodd" clip-rule="evenodd" d="M7.29114 0C3.26435 0 0 3.134 0 7C0 10.866 3.26435 14 7.29114 14H24.7089C28.7356 14 32 10.866 32 7C32 3.134 28.7356 0 24.7089 0H7.29114ZM10.5314 7C10.5314 7.9665 9.71532 8.75 8.70863 8.75C7.70193 8.75 6.88584 7.9665 6.88584 7C6.88584 6.0335 7.70193 5.25 8.70863 5.25C9.71532 5.25 10.5314 6.0335 10.5314 7ZM15.999 8.75C17.0057 8.75 17.8218 7.9665 17.8218 7C17.8218 6.0335 17.0057 5.25 15.999 5.25C14.9923 5.25 14.1762 6.0335 14.1762 7C14.1762 7.9665 14.9923 8.75 15.999 8.75ZM25.1131 7C25.1131 7.9665 24.297 8.75 23.2903 8.75C22.2837 8.75 21.4676 7.9665 21.4676 7C21.4676 6.0335 22.2837 5.25 23.2903 5.25C24.297 5.25 25.1131 6.0335 25.1131 7Z" fill="white"/><path d="M41.7059 6.464H45.1139V7.536H41.7059V11.136H40.6179V7.536H37.2099V6.464H40.6179V2.864H41.7059V6.464Z" fill="white"/><path fill-rule="evenodd" clip-rule="evenodd" d="M58.4472 0C54.3971 0 51.1139 3.13403 51.1139 7.00003C51.1139 10.8659 54.3971 14 58.4472 14H75.7806C79.8307 14 83.1139 10.8659 83.1139 7.00003C83.1139 3.13403 79.8307 0 75.7806 0H58.4472ZM58.7139 2.91668H68.9806V4.55H60.5805V7.81665H64.3139V9.44997H58.7139V2.91668ZM66.1806 6.18332H75.5139V11.0833H66.1806V6.18332Z" fill="white"/></svg>
